<?xml version="1.0" encoding="utf-8"?>
<svg xmlns="http://www.w3.org/2000/svg" viewBox="0 0 500 500">
  <path d="M 138.854 198.331 C 140.405 198.321 141.957 198.314 143.555 198.305 C 146.827 198.293 150.099 198.293 153.371 198.301 C 158.349 198.308 163.323 198.262 168.301 198.211 C 171.491 198.207 174.681 198.205 177.873 198.207 C 179.345 198.189 180.82 198.172 182.338 198.153 C 196.651 198.277 207.604 202.429 218.001 214.625 C 223.723 224.166 226.532 232.98 226.666 244.577 C 226.698 247.023 226.698 247.023 226.731 249.523 C 226.743 251.274 226.756 253.023 226.768 254.826 C 226.783 256.646 226.796 258.468 226.81 260.342 C 226.833 264.197 226.85 268.05 226.863 271.903 C 226.883 275.82 226.917 279.741 226.967 283.661 C 227.039 289.344 227.066 295.027 227.082 300.711 C 227.111 302.443 227.141 304.172 227.171 305.955 C 227.129 320.053 224.21 331.958 216.386 342.884 C 214.752 344.437 214.752 344.437 213.085 346.021 C 211.999 347.09 210.915 348.163 209.797 349.263 C 200.352 356.711 191.533 356.642 180.48 356.757 C 178.786 356.777 177.091 356.801 175.345 356.823 C 171.762 356.861 168.18 356.886 164.597 356.902 C 159.156 356.938 153.718 357.06 148.278 357.186 C 144.785 357.211 141.294 357.231 137.801 357.247 C 136.193 357.296 134.586 357.343 132.929 357.394 C 120.667 357.3 112.157 353.074 102.516 344.181 C 95.758 335.575 92.3 327.371 92.178 315.661 C 92.156 313.868 92.134 312.071 92.113 310.22 C 92.101 308.28 92.089 306.343 92.076 304.346 C 92.062 302.345 92.049 300.342 92.034 298.279 C 92.012 294.037 91.994 289.794 91.98 285.551 C 91.952 279.093 91.878 272.637 91.805 266.179 C 91.788 262.052 91.773 257.926 91.761 253.801 C 91.733 251.88 91.702 249.962 91.672 247.986 C 91.711 233.589 94.33 223.181 102.399 212.185 C 103.474 211.13 104.548 210.071 105.654 208.982 C 106.721 207.892 107.787 206.805 108.885 205.684 C 118.356 198.369 127.913 198.317 138.854 198.331 Z M 116.163 233.526 C 113.161 240.762 113.449 247.76 113.447 255.708 C 113.435 257.412 113.422 259.116 113.409 260.871 C 113.392 264.471 113.387 268.073 113.394 271.673 C 113.395 277.161 113.327 282.646 113.251 288.137 C 113.243 291.64 113.238 295.144 113.238 298.649 C 113.211 300.281 113.184 301.913 113.156 303.595 C 113.238 311.83 113.773 317.073 118.269 323.594 C 125.314 331.536 130.905 330.781 140.26 330.839 C 141.684 330.849 143.108 330.861 144.576 330.872 C 147.594 330.89 150.611 330.903 153.629 330.912 C 158.235 330.929 162.841 330.989 167.447 331.052 C 170.379 331.067 173.312 331.076 176.244 331.085 C 177.618 331.108 178.992 331.132 180.408 331.156 C 188.117 331.121 193.528 330.746 199.59 324.552 C 204.657 315.617 205.355 307.54 205.279 297.075 C 205.286 294.863 205.286 294.863 205.293 292.604 C 205.296 289.499 205.288 286.392 205.266 283.286 C 205.239 278.563 205.266 273.845 205.298 269.124 C 205.294 266.091 205.288 263.058 205.279 260.024 C 205.289 258.631 205.299 257.235 205.309 255.799 C 205.194 246.058 203.885 238.701 199.59 230.329 C 191.361 224.522 183.68 223.562 174.269 223.657 C 173.01 223.652 171.75 223.646 170.451 223.64 C 167.807 223.636 165.161 223.647 162.515 223.671 C 158.486 223.704 154.459 223.672 150.429 223.634 C 147.847 223.637 145.262 223.646 142.678 223.657 C 141.486 223.646 140.293 223.634 139.065 223.621 C 129.712 223.775 123.195 226.246 116.163 233.526 Z" style="stroke-width: 1; fill: rgb(72, 111, 168);"/>
  <path d="M 305.733 1.825 C 308.275 1.793 308.275 1.793 310.868 1.759 C 314.451 1.721 318.034 1.696 321.618 1.68 C 327.059 1.643 332.495 1.522 337.935 1.397 C 341.428 1.372 344.921 1.35 348.412 1.334 C 350.02 1.287 351.629 1.239 353.286 1.188 C 365.545 1.282 374.058 5.508 383.697 14.402 C 390.455 23.007 393.913 31.211 394.035 42.921 C 394.067 45.614 394.067 45.614 394.1 48.362 C 394.112 50.302 394.125 52.239 394.137 54.237 C 394.152 56.24 394.166 58.241 394.179 60.302 C 394.202 64.546 394.219 68.788 394.233 73.031 C 394.263 79.488 394.335 85.945 394.41 92.403 C 394.427 96.53 394.44 100.655 394.452 104.784 C 394.48 106.702 394.51 108.619 394.54 110.596 C 394.502 124.993 391.884 135.4 383.814 146.397 C 382.741 147.455 381.666 148.511 380.558 149.602 C 379.492 150.69 378.428 151.777 377.328 152.897 C 367.857 160.212 358.3 160.265 347.359 160.25 C 345.033 160.265 345.033 160.265 342.658 160.277 C 339.386 160.288 336.114 160.29 332.841 160.281 C 327.866 160.275 322.89 160.322 317.912 160.371 C 314.722 160.375 311.532 160.376 308.342 160.375 C 306.867 160.393 305.395 160.41 303.877 160.429 C 289.561 160.305 278.609 156.153 268.212 143.959 C 262.489 134.416 259.681 125.602 259.547 114.005 C 259.525 112.373 259.504 110.741 259.482 109.059 C 259.47 107.31 259.458 105.559 259.445 103.755 C 259.432 101.936 259.418 100.113 259.403 98.24 C 259.381 94.385 259.363 90.532 259.35 86.68 C 259.331 82.761 259.296 78.841 259.246 74.92 C 259.176 69.238 259.149 63.555 259.13 57.87 C 259.102 56.142 259.072 54.41 259.042 52.627 C 259.083 38.529 262.002 26.624 269.827 15.698 C 271.46 14.145 271.46 14.145 273.129 12.561 C 274.214 11.491 275.298 10.422 276.418 9.319 C 285.861 1.873 294.681 1.939 305.733 1.825 Z M 286.622 34.033 C 281.556 42.965 280.858 51.042 280.935 61.506 C 280.93 62.98 280.925 64.456 280.92 65.978 C 280.917 69.082 280.925 72.19 280.947 75.295 C 280.974 80.019 280.947 84.738 280.915 89.458 C 280.918 92.491 280.925 95.525 280.935 98.557 C 280.925 99.951 280.915 101.347 280.903 102.783 C 281.019 112.524 282.328 119.881 286.622 128.255 C 294.852 134.06 302.534 135.019 311.944 134.924 C 313.204 134.93 314.464 134.936 315.761 134.942 C 318.408 134.946 321.054 134.934 323.698 134.911 C 327.728 134.88 331.755 134.911 335.784 134.948 C 338.368 134.945 340.951 134.936 343.535 134.924 C 344.728 134.936 345.92 134.948 347.15 134.961 C 356.501 134.807 363.018 132.335 370.049 125.056 C 373.054 117.82 372.764 110.821 372.766 102.873 C 372.779 101.17 372.791 99.466 372.804 97.711 C 372.823 94.111 372.828 90.51 372.819 86.91 C 372.818 81.421 372.888 75.936 372.962 70.445 C 372.97 66.942 372.975 63.437 372.975 59.933 C 373.002 58.301 373.03 56.669 373.059 54.987 C 372.975 46.752 372.441 41.509 367.944 34.988 C 360.899 27.047 355.309 27.8 345.953 27.743 C 344.529 27.733 343.105 27.721 341.638 27.709 C 338.621 27.692 335.601 27.679 332.584 27.67 C 327.978 27.652 323.372 27.592 318.766 27.529 C 315.833 27.517 312.901 27.506 309.969 27.497 C 308.595 27.474 307.221 27.45 305.806 27.425 C 298.096 27.46 292.685 27.835 286.622 34.033 Z" style="stroke-width: 1; fill: rgb(72, 111, 168);"/>
  <path d="M 126.832 2.278 C 128.363 2.251 129.894 2.226 131.473 2.2 C 133.125 2.185 134.778 2.171 136.48 2.156 C 138.188 2.14 139.895 2.124 141.654 2.108 C 145.271 2.081 148.888 2.059 152.506 2.043 C 158.013 2.01 163.517 1.923 169.022 1.837 C 172.542 1.818 176.06 1.802 179.578 1.788 C 181.215 1.753 182.85 1.72 184.536 1.684 C 196.81 1.73 205.683 4.799 215.059 14.263 C 215.961 15.523 216.863 16.783 217.792 18.083 C 218.719 19.331 219.648 20.582 220.604 21.87 C 226.84 32.981 226.885 44.188 226.873 57.021 C 226.88 58.839 226.888 60.658 226.895 62.535 C 226.905 66.37 226.905 70.207 226.898 74.046 C 226.893 79.883 226.932 85.719 226.974 91.555 C 226.979 95.298 226.979 99.039 226.977 102.781 C 226.994 104.508 227.009 106.239 227.024 108.019 C 226.918 124.805 223.377 137.651 212.98 149.847 C 204.846 156.557 197.331 159.852 187.443 160.01 C 186.05 160.034 184.659 160.058 183.225 160.085 C 181.732 160.1 180.239 160.114 178.703 160.129 C 177.15 160.145 175.598 160.161 173.998 160.177 C 170.714 160.204 167.429 160.226 164.143 160.242 C 160.801 160.262 157.46 160.305 154.118 160.36 C 149.271 160.445 144.427 160.477 139.58 160.497 C 138.104 160.532 136.629 160.565 135.108 160.601 C 123.089 160.554 112.938 157.128 103.621 147.953 C 102.739 146.675 101.857 145.398 100.948 144.081 C 100.034 142.808 99.122 141.534 98.181 140.223 C 91.833 129.148 91.892 118.803 91.795 105.842 C 91.776 103.854 91.756 101.867 91.736 99.819 C 91.706 95.616 91.682 91.414 91.671 87.211 C 91.637 80.829 91.533 74.453 91.428 68.071 C 91.406 63.977 91.389 59.88 91.376 55.786 C 91.334 53.9 91.294 52.013 91.251 50.069 C 91.331 35.691 94.933 25.707 102.516 14.402 C 109.852 6.477 116.848 2.42 126.832 2.278 Z M 115.906 37.957 C 113.156 44.411 113.924 51.574 113.892 58.667 C 113.882 60.337 113.874 62.009 113.864 63.73 C 113.847 67.269 113.837 70.808 113.83 74.348 C 113.814 79.752 113.762 85.152 113.71 90.554 C 113.698 93.992 113.69 97.432 113.683 100.871 C 113.663 102.482 113.641 104.094 113.621 105.755 C 113.65 114.799 113.971 121.143 119.253 128.255 C 126.872 134.196 133.756 135.014 142.678 134.924 C 144.566 134.933 144.566 134.933 146.491 134.942 C 149.14 134.946 151.788 134.934 154.438 134.911 C 158.463 134.88 162.486 134.911 166.512 134.948 C 169.097 134.945 171.683 134.936 174.269 134.924 C 176.053 134.942 176.053 134.942 177.874 134.961 C 186.179 134.825 192.452 133.289 199.59 128.255 C 204.541 118.602 205.36 109.592 205.279 98.557 C 205.286 96.341 205.286 96.341 205.293 94.079 C 205.296 90.976 205.288 87.873 205.266 84.768 C 205.239 80.044 205.266 75.322 205.298 70.596 C 205.294 67.566 205.289 64.535 205.279 61.506 C 205.289 60.106 205.299 58.707 205.309 57.265 C 205.179 46.299 203.07 38.655 196.864 30.408 C 190.695 26.885 184.728 27.224 177.95 27.223 C 175.772 27.2 175.772 27.2 173.548 27.178 C 170.478 27.156 167.409 27.15 164.339 27.16 C 159.658 27.161 154.981 27.079 150.302 26.993 C 147.314 26.981 144.327 26.977 141.338 26.977 C 139.947 26.943 138.556 26.912 137.121 26.879 C 127.198 27.016 122.808 29.535 115.906 37.957 Z" style="stroke-width: 1; fill: rgb(72, 111, 168);"/>
  <path d="M 267.27 214.338 C 269.166 214.33 269.166 214.33 271.099 214.319 C 275.276 214.302 279.456 214.297 283.635 214.296 C 286.539 214.287 289.443 214.281 292.346 214.275 C 298.434 214.264 304.523 214.261 310.61 214.261 C 318.413 214.261 326.214 214.234 334.016 214.199 C 340.015 214.177 346.012 214.174 352.009 214.176 C 354.886 214.174 357.763 214.164 360.64 214.151 C 364.662 214.13 368.684 214.136 372.707 214.148 C 373.895 214.136 375.084 214.124 376.309 214.114 C 382.358 214.16 387.021 214.419 392.065 218.552 C 394.646 224.602 394.238 229.56 393.739 236.217 C 389.722 241.426 387.193 242.088 381.201 242.855 C 378.835 242.888 376.466 242.892 374.1 242.869 C 372.155 242.885 372.155 242.885 370.172 242.899 C 365.894 242.926 361.616 242.908 357.336 242.888 C 354.36 242.892 351.384 242.898 348.407 242.905 C 342.172 242.914 335.936 242.902 329.7 242.874 C 321.708 242.841 313.718 242.858 305.726 242.893 C 299.58 242.915 293.434 242.91 287.289 242.893 C 284.343 242.891 281.395 242.893 278.45 242.908 C 274.331 242.923 270.212 242.899 266.095 242.869 C 264.267 242.886 264.267 242.886 262.404 242.904 C 257.257 242.828 253.612 242.395 249.031 239.543 C 246.454 236.217 246.454 236.217 245.826 229.348 C 246.454 222.477 246.454 222.477 249.801 216.589 C 255.733 214.268 261.099 214.335 267.27 214.338 Z" style="stroke-width: 1; fill: rgb(72, 111, 168);"/>
  <path d="M 292.102 408.629 C 295.188 411.078 297.615 413.46 300.012 416.812 C 300.327 422.086 300.327 422.086 300.012 426.626 C 296.142 428.834 296.142 428.834 291.644 430.552 C 289.987 429.256 288.33 427.961 286.622 426.626 C 286.622 425.331 286.622 424.034 286.622 422.7 C 281.61 420.987 277.19 420.523 271.978 420.613 C 269.971 420.641 269.971 420.641 267.924 420.666 C 266.915 420.69 265.905 420.713 264.864 420.737 C 262.232 426.315 262.232 426.315 261.517 432.515 C 263.589 433.244 265.659 433.972 267.793 434.723 C 295.478 445.595 295.478 445.595 301.686 458.034 C 303.709 465.584 304.041 471.782 301.476 479.136 C 294.487 488.972 287.506 493.836 276.58 495.329 C 266.351 495.512 259.562 493.236 251.475 485.515 C 250.163 484.3 248.852 483.084 247.5 481.835 C 243.91 476.328 244.256 472.642 244.78 465.885 C 247.542 464.59 250.303 463.295 253.149 461.96 C 254.392 463.457 255.634 464.954 256.914 466.497 C 258.434 468.239 259.952 469.98 261.517 471.774 C 262.484 472.987 263.45 474.202 264.446 475.454 C 270.567 479.044 276.733 477.3 283.275 475.701 C 284.932 474.728 284.932 474.728 286.622 473.737 C 286.622 469.851 286.622 465.964 286.622 461.96 C 282.224 459.887 277.822 457.839 273.397 455.846 C 251.175 445.549 251.175 445.549 246.454 434.477 C 245.503 420.864 245.503 420.864 248.964 413.252 C 261.611 400.276 277.631 399.515 292.102 408.629 Z" style="stroke-width: 1; fill: rgb(72, 111, 168);"/>
  <path d="M 222.185 396.935 C 226.369 397.182 226.369 397.182 228.043 399.145 C 228.17 404.45 228.195 409.709 228.149 415.016 C 228.142 416.611 228.135 418.206 228.129 419.85 C 228.102 426.702 228.055 433.553 228.01 440.406 C 227.98 445.398 227.958 450.388 227.939 455.379 C 227.924 456.932 227.911 458.483 227.898 460.083 C 227.872 466.472 227.981 471.555 229.717 477.664 C 233.909 480.055 233.909 480.055 238.085 481.589 C 237.533 484.828 236.981 488.067 236.412 491.404 C 225.662 493.876 225.662 493.876 220.512 491.158 C 216.055 488.704 216.055 488.704 210.784 492.261 C 209.792 492.828 208.799 493.397 207.776 493.98 C 202.078 496.409 196.931 495.375 191.222 493.368 C 184.5 489.132 180.616 485.984 177.832 477.664 C 176.251 463.768 177.466 451.87 184.527 440.367 C 190.151 434.171 195.406 432.236 203.043 432.269 C 209.633 432.515 209.633 432.515 212.98 434.477 C 212.941 432.748 212.903 431.021 212.863 429.241 C 212.818 425.819 212.818 425.819 212.771 422.331 C 212.732 420.077 212.694 417.823 212.654 415.5 C 213.084 406.874 213.773 397.429 222.185 396.935 Z M 194.988 450.058 C 190.544 457.155 190.07 461.027 190.522 469.619 C 191.076 474.132 191.076 474.132 193.942 478.89 C 197.892 482.09 197.892 482.09 203.043 481.589 C 208.749 479.31 209.949 477.738 212.98 471.774 C 213.83 466.906 213.83 466.906 213.713 461.835 C 213.745 460.154 213.777 458.472 213.81 456.736 C 213.301 451.889 213.301 451.889 210.006 448.593 C 203.862 444.731 200.573 445.443 194.988 450.058 Z" style="stroke-width: 1; fill: rgb(72, 111, 168);"/>
  <path d="M 17.792 402.356 C 19.473 402.358 21.151 402.359 22.882 402.359 C 24.618 402.391 26.353 402.422 28.142 402.456 C 29.885 402.45 31.625 402.444 33.421 402.437 C 47.525 402.554 47.525 402.554 53.979 406.996 C 54.051 410.266 54.048 413.539 53.979 416.812 C 52.305 418.773 52.305 418.773 48.581 418.996 C 46.978 418.986 45.375 418.976 43.721 418.964 C 41.125 418.955 41.125 418.955 38.474 418.945 C 36.653 418.929 34.83 418.914 32.954 418.896 C 30.211 418.882 30.211 418.882 27.413 418.869 C 22.879 418.847 18.345 418.811 13.81 418.773 C 13.81 426.547 13.81 434.32 13.81 442.33 C 16.14 441.843 16.14 441.843 18.519 441.348 C 26.922 439.932 35.466 439.782 43.937 440.367 C 45.611 442.33 45.611 442.33 45.82 447.238 C 45.611 452.144 45.611 452.144 43.937 454.107 C 34.427 456.243 25.145 456.274 15.484 456.07 C 15.504 458.434 15.523 460.797 15.543 463.232 C 15.559 466.326 15.575 469.417 15.59 472.51 C 15.603 474.069 15.616 475.627 15.631 477.233 C 15.673 488.996 15.673 488.996 13.81 493.368 C 9.944 493.368 6.078 493.368 2.095 493.368 C -0.789 479.664 -0.083 465.289 -0.165 451.265 C -0.193 447.753 -0.239 444.243 -0.302 440.734 C -0.394 435.655 -0.431 430.583 -0.454 425.505 C -0.493 423.935 -0.531 422.364 -0.57 420.747 C -0.555 416.318 -0.555 416.318 0.421 408.959 C 5.85 403.149 10.602 402.328 17.792 402.356 Z" style="stroke-width: 1; fill: rgb(72, 111, 168);"/>
  <path d="M 408.698 439.016 C 415.217 448.98 415.862 456.016 414.869 468.46 C 414.683 470.922 414.498 473.386 414.307 475.922 C 414.067 478.727 414.067 478.727 413.823 481.589 C 416.585 481.589 419.346 481.589 422.192 481.589 C 423.02 485.475 423.02 485.475 423.865 489.441 C 421.251 492.508 421.251 492.508 417.17 495.329 C 411.167 494.836 406.136 493.631 400.434 491.404 C 398.156 492.314 398.156 492.314 395.831 493.243 C 387.998 496.246 381.728 496.875 374.073 492.998 C 369.676 488.845 367.472 485.749 365.286 479.625 C 365.286 471.468 366.451 468.535 371.04 462.326 C 377.092 456.267 379.953 455.799 387.777 455.826 C 389.397 455.82 391.017 455.813 392.686 455.81 C 397.086 456.07 397.086 456.07 402.107 458.034 C 400.571 452.842 400.571 452.842 397.086 448.219 C 389.277 447.331 382.975 448.335 375.328 450.181 C 374.224 449.533 373.119 448.886 371.981 448.219 C 371.459 443.678 371.459 443.678 371.981 438.404 C 383.327 427.757 397.5 428.677 408.698 439.016 Z M 378.676 471.774 C 379.213 476.881 379.213 476.881 380.349 481.589 C 387.961 481.939 393.538 481.583 400.434 477.664 C 400.434 475.072 400.434 472.48 400.434 469.811 C 393.14 466.959 384.483 464.963 378.676 471.774 Z" style="stroke-width: 1; fill: rgb(72, 111, 168);"/>
  <path d="M 475.75 432.515 C 481.47 439.224 484.055 444.582 484.224 454.169 C 484.153 458.706 484.083 463.248 484.014 467.785 C 483.869 473.83 483.869 473.83 485.792 479.625 C 487.449 480.922 489.106 482.217 490.813 483.552 C 489.349 491.158 489.349 491.158 487.466 493.368 C 481.896 494.091 478.605 494.254 473.822 490.66 C 469.06 482.737 469.599 474.868 469.473 465.394 C 469.425 463.557 469.375 461.72 469.323 459.828 C 469.206 455.303 469.117 450.78 469.055 446.256 C 463.403 447.875 459.885 448.983 456.052 454.252 C 453.339 461.816 452.224 469.215 451.168 477.295 C 450.951 478.842 450.735 480.39 450.51 481.984 C 449.982 485.774 449.474 489.57 448.971 493.368 C 441.021 495.575 441.021 495.575 437.255 493.368 C 434.826 484.283 435.394 474.69 435.477 465.271 C 435.484 463.63 435.492 461.989 435.499 460.299 C 435.519 456.271 435.549 452.245 435.581 448.219 C 432.267 446.923 428.953 445.628 425.539 444.293 C 427.003 434.723 427.003 434.723 428.886 432.515 C 437.588 431.51 437.588 431.51 442.276 432.515 C 446.46 437.422 446.46 437.422 448.971 442.33 C 450.214 440.749 451.456 439.171 452.736 437.544 C 460.315 429.262 465.714 429.571 475.75 432.515 Z" style="stroke-width: 1; fill: rgb(72, 111, 168);"/>
  <path d="M 95.403 434.968 C 102.337 441.291 106.046 446.527 107.328 456.806 C 107.951 467.536 106.187 475.81 101.366 485.024 C 95.656 491.539 90.129 495.107 82.027 495.52 C 73.337 494.818 67.347 492.409 60.674 485.515 C 56.147 477.274 54.267 469.783 53.979 459.997 C 55.916 450.166 59.395 441.454 65.695 434.477 C 76.023 429.352 85.16 429.508 95.403 434.968 Z M 72.495 447.85 C 67.735 456.476 67.26 463.722 69.042 473.737 C 72.276 479.357 72.276 479.357 77.411 481.589 C 82.708 481.464 85.987 480.692 90.487 477.418 C 94.108 470.711 94.765 463.891 93.533 456.116 C 92.447 451.79 92.447 451.79 89.127 446.256 C 81.941 443.134 79.043 443.111 72.495 447.85 Z" style="stroke-width: 1; fill: rgb(72, 111, 168);"/>
  <path d="M 158.376 435.95 C 164.254 441.858 167.402 446.829 168.458 455.947 C 168.445 457.931 168.431 459.913 168.418 461.96 C 168.431 463.942 168.445 465.927 168.458 467.97 C 167.283 478.121 162.575 485.111 155.735 491.365 C 149.94 495.219 144.245 496.021 137.664 495.329 C 130.351 492.515 124.328 488.433 119.253 481.589 C 115.564 470.771 115.166 461.365 117.579 450.181 C 121.541 441.528 125.841 434.417 134.069 431.364 C 142.738 429.404 150.625 431.235 158.376 435.95 Z M 130.969 452.144 C 128.84 461.772 128.897 468.667 132.643 477.664 C 136.825 481.691 139.033 481.603 144.464 481.344 C 149.355 480.027 149.355 480.027 152.518 476.682 C 155.408 469.15 155.716 462.205 154.401 454.107 C 150.541 447.767 148.265 444.866 141.744 443.187 C 136.176 444.694 134.301 446.702 130.969 452.144 Z" style="stroke-width: 1; fill: rgb(72, 111, 168);"/>
  <path d="M 330.138 253.884 C 335.889 258.046 339.858 261.924 341.854 269.588 C 342.634 279.042 342.728 283.352 338.925 291.794 C 331.275 302.512 331.275 302.512 324.987 303.511 C 317.008 303.882 311.304 303.373 305.033 297.069 C 300.517 290.771 298.516 286.716 297.501 278.544 C 298.512 270.105 300.402 264.375 305.033 257.811 C 313.134 250.74 320.704 250.862 330.138 253.884 Z" style="stroke-width: 1; fill: rgb(255, 0, 0);"/>
  <path d="M 167.502 253.278 C 172.87 256.438 175.884 259.337 179.506 265.048 C 181.722 273.659 181.523 280.56 179.506 289.218 C 175.797 296.266 172.544 299.769 166.117 302.959 C 159.41 304.471 153.484 304.682 147.53 300.458 C 138.06 291.071 138.06 291.071 137.265 283.42 C 136.966 272.558 137.885 266.202 144.359 257.811 C 151.962 251.994 158.729 249.385 167.502 253.278 Z" style="stroke-width: 1; fill: rgb(72, 111, 168);"/>
  <path d="M 335.16 55.624 C 340.81 59.631 345.573 64.346 348.549 71.328 C 349.498 80.442 349.254 87.278 345.829 95.62 C 340.174 102.95 335.225 106.066 326.897 107.519 C 320.135 106.387 315.363 103.843 310.054 98.809 C 305.617 91.817 304.668 86.573 305.139 78.075 C 306.203 70.011 308.248 65.25 313.402 59.551 C 320.498 54.657 327.102 53.751 335.16 55.624 Z" style="stroke-width: 1; fill: rgb(72, 111, 168);"/>
  <path d="M 166.117 55.624 C 174.349 60.273 178.09 65.19 181.18 75.254 C 182.323 84.254 180.654 90.226 176.584 97.728 C 172.99 102.941 169.892 104.733 164.443 106.662 C 156.732 107.03 151.065 105.918 144.464 101.14 C 138.173 93.316 136.743 86.449 136.892 75.89 C 138.241 67.918 142.594 62.807 147.706 57.588 C 153.525 54.174 159.755 54.732 166.117 55.624 Z" style="stroke-width: 1; fill: rgb(72, 111, 168);"/>
  <path d="M 294.991 302.959 C 300.692 307.174 304.715 311.015 306.707 318.663 C 307.42 329.182 307.525 335.679 301.686 344.181 C 297.875 349.193 295.086 351.658 289.407 352.86 C 282.078 353.324 276.605 353.091 270.722 347.616 C 265.231 340.53 263.48 337.37 262.563 327.863 C 263.315 319.19 264.983 313.465 269.886 306.885 C 278.91 300.372 285.029 300.13 294.991 302.959 Z" style="stroke-width: 1; fill: rgb(72, 111, 168);"/>
  <path d="M 368.215 305.288 C 374.754 311.466 376.707 317.866 377.735 327.495 C 376.709 337.125 373.368 342.949 367.227 349.355 C 360.797 354.115 354.188 353.69 346.875 352.033 C 340.219 347.568 335.923 342.941 333.486 334.366 C 332.689 324.647 333.524 317.987 337.958 309.859 C 346.357 298.619 357.523 299.873 368.215 305.288 Z" style="stroke-width: 1; fill: rgb(72, 111, 168);"/>
  <path d="M 350.014 433.373 C 355.244 436.44 355.244 436.44 356.918 438.404 C 357.232 443.187 357.232 443.187 356.918 448.219 C 355.813 449.514 354.708 450.809 353.57 452.144 C 349.177 451.409 349.177 451.409 345.202 450.181 C 345.202 448.886 345.202 447.591 345.202 446.256 C 339.973 445.837 336.14 445.757 331.29 448.219 C 326.997 454.183 326.712 460.195 326.791 467.848 C 327.297 472.634 327.297 472.634 330.138 475.701 C 336.234 478.666 339.913 480.439 346.248 477.785 C 348.216 476.752 348.216 476.752 350.223 475.701 C 354.931 476.436 354.931 476.436 358.591 477.664 C 359.01 482.201 359.01 482.201 358.591 487.478 C 352.842 494.22 347.518 495.124 339.658 495.82 C 330.246 495.071 324.06 491.775 316.958 484.533 C 311.154 476.522 311.157 469.251 311.258 459.153 C 312.208 448.962 316.325 442.646 322.712 435.705 C 331.402 428.909 340.494 428.664 350.014 433.373 Z" style="stroke-width: 1; fill: rgb(72, 111, 168);"/>
</svg>