<?xml version="1.0" encoding="UTF-8"?>
<svg version="1.1" xmlns="http://www.w3.org/2000/svg" width="300" height="268">
<path d="M0 0 C0.92696686 -0.00428513 1.85393372 -0.00857025 2.80899048 -0.01298523 C4.76392808 -0.0187108 6.71888698 -0.0192419 8.67382812 -0.01489258 C11.64750954 -0.01173632 14.62019164 -0.03520125 17.59375 -0.06054688 C19.49999876 -0.06282058 21.40625016 -0.06352303 23.3125 -0.0625 C24.1929599 -0.07170975 25.0734198 -0.08091949 25.9805603 -0.09040833 C34.53287257 -0.02706052 41.0768018 2.08852055 47.2890625 8.30078125 C50.70789399 13.16142026 52.38615962 17.65131406 52.46606445 23.55932617 C52.48531731 24.80663765 52.48531731 24.80663765 52.50495911 26.07914734 C52.51234604 26.97084122 52.51973297 27.8625351 52.52734375 28.78125 C52.5354155 29.70867508 52.54348724 30.63610016 52.55180359 31.59162903 C52.56562146 33.55431258 52.57635387 35.51701993 52.58422852 37.47973633 C52.59573334 39.47655329 52.61616134 41.47333986 52.64575195 43.4699707 C52.68864851 46.36560827 52.70462918 49.2603332 52.71484375 52.15625 C52.73235184 53.03782272 52.74985992 53.91939545 52.76789856 54.8276825 C52.74310232 62.00916017 50.99880369 68.07387276 46.32421875 73.640625 C45.34775391 74.43146484 45.34775391 74.43146484 44.3515625 75.23828125 C43.70316406 75.78355469 43.05476563 76.32882813 42.38671875 76.890625 C36.74426933 80.68378001 31.47451948 80.64922092 24.87109375 80.70703125 C23.85867111 80.7184314 22.84624847 80.72983154 21.80314636 80.74157715 C19.66234493 80.76044183 17.52148587 80.77353109 15.38061523 80.78125 C12.12964564 80.80061398 8.88123324 80.86266241 5.63085938 80.92578125 C3.54428575 80.93884808 1.45769414 80.94934637 -0.62890625 80.95703125 C-1.58967575 80.98172485 -2.55044525 81.00641846 -3.54032898 81.03186035 C-10.86590316 80.98427847 -15.9512839 78.83148913 -21.7109375 74.30078125 C-25.74864826 69.91755759 -27.81491837 65.73768717 -27.88793945 59.77270508 C-27.90077469 58.85777786 -27.91360992 57.94285065 -27.92683411 57.00019836 C-27.93422104 56.01271103 -27.94160797 55.02522369 -27.94921875 54.0078125 C-27.9572905 52.98781662 -27.96536224 51.96782074 -27.97367859 50.91691589 C-27.98751433 48.75574439 -27.99823876 46.59455109 -28.00610352 44.43334961 C-28.02328082 41.14329027 -28.06716819 37.85424514 -28.11132812 34.56445312 C-28.12145854 32.46224696 -28.12997355 30.36003226 -28.13671875 28.2578125 C-28.15422684 27.28044632 -28.17173492 26.30308014 -28.18977356 25.2960968 C-28.16671919 17.96198963 -26.6023799 12.66047343 -21.78125 7.05859375 C-21.13929687 6.51976563 -20.49734375 5.9809375 -19.8359375 5.42578125 C-19.19914062 4.87148437 -18.56234375 4.3171875 -17.90625 3.74609375 C-12.2468272 0.02013924 -6.53666768 -0.00673546 0 0 Z M-13.55664062 17.93017578 C-15.35151689 21.61635356 -15.17871126 25.18096209 -15.1796875 29.23046875 C-15.18730103 30.09842072 -15.19491455 30.96637268 -15.20275879 31.86062622 C-15.21355118 33.69465259 -15.21641638 35.52874037 -15.21191406 37.36279297 C-15.21094312 40.15958003 -15.25254259 42.95360995 -15.296875 45.75 C-15.30208343 47.53515055 -15.30477017 49.3203106 -15.3046875 51.10546875 C-15.32108276 51.93690399 -15.33747803 52.76833923 -15.35437012 53.62496948 C-15.30479772 57.82000667 -14.98544114 60.49148099 -12.29882812 63.81298828 C-8.09019809 67.85883169 -4.74955184 67.47518527 0.83984375 67.50390625 C1.69080124 67.50960632 2.54175873 67.5153064 3.41850281 67.5211792 C5.22161616 67.53063423 7.02474683 67.53716517 8.82788086 67.54101562 C11.58022448 67.55070612 14.33181658 67.581718 17.08398438 67.61328125 C18.83593307 67.61981288 20.5878871 67.62506272 22.33984375 67.62890625 C23.16084061 67.64125305 23.98183746 67.65359985 24.82771301 67.6663208 C29.43402002 67.64845981 32.66684682 67.45718257 36.2890625 64.30078125 C39.31634962 59.74910085 39.73292597 55.63560987 39.6875 50.3046875 C39.69180527 49.17703224 39.69180527 49.17703224 39.69619751 48.02659607 C39.69822966 46.44407392 39.69275942 44.86152616 39.68017578 43.27905273 C39.66413137 40.87360691 39.68004051 38.46984674 39.69921875 36.06445312 C39.69723573 34.51952758 39.69339083 32.97460308 39.6875 31.4296875 C39.69357269 30.71905655 39.69964539 30.0084256 39.7059021 29.27626038 C39.63698264 24.31431605 38.8549519 20.56623666 36.2890625 16.30078125 C31.37219055 13.34303151 26.78249264 12.85429811 21.16015625 12.90234375 C20.40742935 12.89947357 19.65470245 12.89660339 18.87916565 12.89364624 C17.29842368 12.89161724 15.71765592 12.89706508 14.13696289 12.90966797 C11.72940595 12.92576224 9.32352161 12.9097692 6.91601562 12.890625 C5.37239216 12.8926072 3.82876973 12.8964504 2.28515625 12.90234375 C1.57250107 12.89627106 0.85984589 12.89019836 0.12559509 12.88394165 C-5.46185176 12.96191008 -9.35570817 14.22157482 -13.55664062 17.93017578 Z " fill="#FFFFFF" transform="translate(87.7109375,99.69921875)"/>
<path d="M0 0 C1.51863396 -0.01710022 1.51863396 -0.01710022 3.06794739 -0.0345459 C5.20874882 -0.05341058 7.34960788 -0.06649984 9.49047852 -0.07421875 C12.74144811 -0.09358273 15.98986051 -0.15563116 19.24023438 -0.21875 C21.326808 -0.23181683 23.41339961 -0.24231512 25.5 -0.25 C26.4607695 -0.2746936 27.421539 -0.29938721 28.41142273 -0.3248291 C35.73699691 -0.27724722 40.82237765 1.87554212 46.58203125 6.40625 C50.61974201 10.78947366 52.68601212 14.96934408 52.7590332 20.93432617 C52.77828606 22.306717 52.77828606 22.306717 52.79792786 23.70683289 C52.80531479 24.69432022 52.81270172 25.68180756 52.8203125 26.69921875 C52.82838425 27.71921463 52.83645599 28.73921051 52.84477234 29.79011536 C52.85860808 31.95128686 52.86933251 34.11248016 52.87719727 36.27368164 C52.89437457 39.56374098 52.93826194 42.85278611 52.98242188 46.14257812 C52.99255229 48.24478429 53.0010673 50.34699899 53.0078125 52.44921875 C53.02532059 53.42658493 53.04282867 54.40395111 53.06086731 55.41093445 C53.03781294 62.74504162 51.47347365 68.04655782 46.65234375 73.6484375 C46.01039063 74.18726562 45.3684375 74.72609375 44.70703125 75.28125 C44.07023437 75.83554688 43.4334375 76.38984375 42.77734375 76.9609375 C37.11792095 80.68689201 31.40776143 80.71376671 24.87109375 80.70703125 C23.48064346 80.71345894 23.48064346 80.71345894 22.06210327 80.72001648 C20.10716567 80.72574205 18.15220677 80.72627315 16.19726562 80.72192383 C13.22358421 80.71876757 10.25090211 80.7422325 7.27734375 80.76757812 C5.37109499 80.76985183 3.46484359 80.77055428 1.55859375 80.76953125 C0.67813385 80.778741 -0.20232605 80.78795074 -1.10946655 80.79743958 C-9.66177882 80.73409177 -16.20570805 78.6185107 -22.41796875 72.40625 C-25.83680024 67.54561099 -27.51506587 63.05571719 -27.5949707 57.14770508 C-27.60780594 56.31616409 -27.62064117 55.48462311 -27.63386536 54.62788391 C-27.64125229 53.73619003 -27.64863922 52.84449615 -27.65625 51.92578125 C-27.66432175 50.99835617 -27.67239349 50.07093109 -27.68070984 49.11540222 C-27.69452771 47.15271867 -27.70526012 45.19001132 -27.71313477 43.22729492 C-27.72463959 41.23047796 -27.74506759 39.23369139 -27.7746582 37.23706055 C-27.81755476 34.34142298 -27.83353543 31.44669805 -27.84375 28.55078125 C-27.86125809 27.66920853 -27.87876617 26.7876358 -27.89680481 25.87934875 C-27.87200857 18.69787108 -26.12770994 12.63315849 -21.453125 7.06640625 C-20.47666016 6.27556641 -20.47666016 6.27556641 -19.48046875 5.46875 C-18.83207031 4.92347656 -18.18367187 4.37820312 -17.515625 3.81640625 C-11.87317558 0.02325124 -6.60342573 0.05781033 0 0 Z M-11.41796875 16.40625 C-14.44525587 20.9579304 -14.86183222 25.07142138 -14.81640625 30.40234375 C-14.81927643 31.15411392 -14.82214661 31.90588409 -14.82510376 32.68043518 C-14.82713591 34.26295733 -14.82166567 35.84550509 -14.80908203 37.42797852 C-14.79303762 39.83342434 -14.80894676 42.23718451 -14.828125 44.64257812 C-14.82614198 46.18750367 -14.82229708 47.73242817 -14.81640625 49.27734375 C-14.82247894 49.9879747 -14.82855164 50.69860565 -14.83480835 51.43077087 C-14.76588889 56.3927152 -13.98385815 60.14079459 -11.41796875 64.40625 C-6.5010968 67.36399974 -1.91139889 67.85273314 3.7109375 67.8046875 C4.4636644 67.80755768 5.2163913 67.81042786 5.9919281 67.81338501 C7.57267007 67.81541401 9.15343783 67.80996617 10.73413086 67.79736328 C13.1416878 67.78126901 15.54757214 67.79726205 17.95507812 67.81640625 C19.49870159 67.81442405 21.04232402 67.81058085 22.5859375 67.8046875 C23.29859268 67.81076019 24.01124786 67.81683289 24.74549866 67.8230896 C30.33294551 67.74512117 34.22680192 66.48545643 38.42773438 62.77685547 C40.22261064 59.09067769 40.04980501 55.52606916 40.05078125 51.4765625 C40.05839478 50.60861053 40.0660083 49.74065857 40.07385254 48.84640503 C40.08464493 47.01237866 40.08751013 45.17829088 40.08300781 43.34423828 C40.08203687 40.54745122 40.12363634 37.7534213 40.16796875 34.95703125 C40.17317718 33.1718807 40.17586392 31.38672065 40.17578125 29.6015625 C40.19217651 28.77012726 40.20857178 27.93869202 40.22546387 27.08206177 C40.17589147 22.88702458 39.85653489 20.21555026 37.16992188 16.89404297 C32.96129184 12.84819956 29.62064559 13.23184598 24.03125 13.203125 C23.18029251 13.19742493 22.32933502 13.19172485 21.45259094 13.18585205 C19.64947759 13.17639702 17.84634692 13.16986608 16.04321289 13.16601562 C13.29086927 13.15632513 10.53927717 13.12531325 7.78710938 13.09375 C6.03516068 13.08721837 4.28320665 13.08196853 2.53125 13.078125 C1.71025314 13.0657782 0.88925629 13.0534314 0.04338074 13.04071045 C-4.56292627 13.05857144 -7.79575307 13.24984868 -11.41796875 16.40625 Z " fill="#FFFFFF" transform="translate(187.41796875,-0.40625)"/>
<path d="M0 0 C0.91492722 -0.01283524 1.82985443 -0.02567047 2.77250671 -0.03889465 C3.75999405 -0.04628159 4.74748138 -0.05366852 5.76489258 -0.0612793 C6.78488846 -0.06935104 7.80488434 -0.07742279 8.85578918 -0.08573914 C11.01696068 -0.09957488 13.17815399 -0.11029931 15.33935547 -0.11816406 C18.62941481 -0.13534137 21.91845993 -0.17922873 25.20825195 -0.22338867 C27.31045812 -0.23351909 29.41267282 -0.2420341 31.51489258 -0.2487793 C32.49225876 -0.26628738 33.46962494 -0.28379547 34.47660828 -0.30183411 C41.81071545 -0.27877974 47.11223165 1.28555956 52.71411133 6.10668945 C53.25293945 6.74864258 53.79176758 7.3905957 54.34692383 8.05200195 C54.9012207 8.68879883 55.45551758 9.3255957 56.02661133 9.98168945 C59.75256584 15.64111225 59.77944053 21.35127178 59.77270508 27.88793945 C59.7769902 28.81490631 59.78127533 29.74187317 59.78569031 30.69692993 C59.79141588 32.65186753 59.79194698 34.60682643 59.78759766 36.56176758 C59.7844414 39.53544899 59.80790633 42.50813109 59.83325195 45.48168945 C59.83552566 47.38793821 59.83622811 49.29418962 59.83520508 51.20043945 C59.84441483 52.08089935 59.85362457 52.96135925 59.8631134 53.86849976 C59.7997656 62.42081202 57.68418453 68.96474126 51.47192383 75.17700195 C46.61128481 78.59583344 42.12139102 80.27409907 36.21337891 80.35400391 C35.38183792 80.36683914 34.55029694 80.37967438 33.69355774 80.39289856 C32.80186386 80.40028549 31.91016998 80.40767242 30.99145508 80.4152832 C30.06403 80.42335495 29.13660492 80.4314267 28.18107605 80.43974304 C26.2183925 80.45356091 24.25568515 80.46429332 22.29296875 80.47216797 C20.29615179 80.4836728 18.29936522 80.50410079 16.30273438 80.53369141 C13.4070968 80.57658797 10.51237188 80.59256863 7.61645508 80.6027832 C6.73488235 80.62029129 5.85330963 80.63779938 4.94502258 80.65583801 C-2.23645509 80.63104177 -8.30116768 78.88674314 -13.86791992 74.2121582 C-14.39514648 73.56118164 -14.92237305 72.91020508 -15.46557617 72.23950195 C-16.01084961 71.59110352 -16.55612305 70.94270508 -17.11791992 70.2746582 C-20.91107493 64.63220878 -20.87651584 59.36245893 -20.93432617 52.7590332 C-20.94572632 51.74661057 -20.95712646 50.73418793 -20.96887207 49.69108582 C-20.98773675 47.55028438 -21.00082602 45.40942533 -21.00854492 43.26855469 C-21.0279089 40.01758509 -21.08995733 36.76917269 -21.15307617 33.51879883 C-21.166143 31.4322252 -21.17664129 29.34563359 -21.18432617 27.2590332 C-21.20901978 26.2982637 -21.23371338 25.3374942 -21.25915527 24.34761047 C-21.21157339 17.0220363 -19.05878406 11.93665555 -14.52807617 6.17700195 C-10.14485251 2.1392912 -5.96498209 0.07302108 0 0 Z M-6.52807617 18.17700195 C-8.17173801 21.46432563 -7.71262949 25.11354415 -7.73120117 28.7277832 C-7.73690125 29.57874069 -7.74260132 30.42969818 -7.74847412 31.30644226 C-7.75792915 33.10955561 -7.7644601 34.91268628 -7.76831055 36.71582031 C-7.77800104 39.46816393 -7.80901292 42.21975604 -7.84057617 44.97192383 C-7.8471078 46.72387252 -7.85235764 48.47582655 -7.85620117 50.2277832 C-7.86854797 51.04878006 -7.88089478 51.86977692 -7.89361572 52.71565247 C-7.87575473 57.32195947 -7.68447749 60.55478627 -4.52807617 64.17700195 C0.02360423 67.20428907 4.1370952 67.62086543 9.46801758 67.57543945 C10.59567284 67.57974472 10.59567284 67.57974472 11.74610901 67.58413696 C13.32863116 67.58616911 14.91117892 67.58069887 16.49365234 67.56811523 C18.89909817 67.55207083 21.30285834 67.56797997 23.70825195 67.5871582 C25.25317749 67.58517518 26.798102 67.58133028 28.34301758 67.57543945 C29.408964 67.58454849 29.408964 67.58454849 30.4964447 67.59384155 C35.45838903 67.52492209 39.20646842 66.74289136 43.47192383 64.17700195 C46.42967357 59.26013 46.91840697 54.67043209 46.87036133 49.0480957 C46.8746666 47.91900536 46.8746666 47.91900536 46.87905884 46.7671051 C46.88108783 45.18636313 46.87564 43.60559538 46.86303711 42.02490234 C46.84694284 39.6173454 46.86293588 37.21146107 46.88208008 34.80395508 C46.88009788 33.26033162 46.87625468 31.71670919 46.87036133 30.1730957 C46.87643402 29.46044052 46.88250671 28.74778534 46.88876343 28.01353455 C46.810795 22.42608769 45.55113025 18.53223129 41.8425293 14.33129883 C38.15635152 12.53642256 34.59174299 12.7092282 30.54223633 12.70825195 C29.24030838 12.69683167 29.24030838 12.69683167 27.91207886 12.68518066 C26.07805249 12.67438828 24.2439647 12.67152307 22.40991211 12.67602539 C19.61312505 12.67699633 16.81909513 12.63539687 14.02270508 12.59106445 C12.23755453 12.58585602 10.45239448 12.58316928 8.66723633 12.58325195 C7.83580109 12.56685669 7.00436584 12.55046143 6.1477356 12.53356934 C0.2184095 12.60363568 -2.40390017 13.88688757 -6.52807617 18.17700195 Z " fill="#FFFFFF" transform="translate(80.528076171875,-0.177001953125)"/>
<path d="M0 0 C1.13218712 -0.00503792 1.13218712 -0.00503792 2.2872467 -0.01017761 C4.78404381 -0.01968186 7.28077382 -0.0216304 9.77758789 -0.02270508 C11.51249723 -0.02591782 13.2474063 -0.02928191 14.98231506 -0.03279114 C18.61972685 -0.03878094 22.25711488 -0.04063117 25.89453125 -0.04003906 C30.55636482 -0.0399374 35.21804622 -0.05359425 39.87984371 -0.07081127 C43.46318767 -0.08192684 47.04649477 -0.08395841 50.6298542 -0.08342934 C52.34865405 -0.08460994 54.06745483 -0.08903624 55.78623772 -0.0967617 C58.18963172 -0.10655345 60.59269447 -0.10368694 62.99609375 -0.09765625 C63.70635712 -0.10327576 64.41662048 -0.10889526 65.14840698 -0.11468506 C68.76228592 -0.09162935 71.54852522 0.04079346 74.56274414 2.14526367 C76.10437589 5.22852717 75.86021949 7.75404467 75.56274414 11.14526367 C73.16283201 13.79867892 71.65121133 14.13561039 68.0715332 14.5262146 C66.6572549 14.54399574 65.24270993 14.54525498 63.82836914 14.53344727 C62.66670227 14.5413327 62.66670227 14.5413327 61.48156738 14.54937744 C58.92508698 14.56256659 56.36923073 14.55384343 53.81274414 14.54370117 C52.03442261 14.54572222 50.25610189 14.54863392 48.4777832 14.55239868 C44.75211694 14.55682056 41.02666655 14.55039541 37.30102539 14.53637695 C32.52588721 14.5192851 27.75125488 14.52912702 22.97613525 14.54709435 C19.3044046 14.55793589 15.63279384 14.55448415 11.96105957 14.54671097 C10.20039815 14.54470999 8.43972585 14.54716467 6.67907715 14.55414963 C4.21813125 14.56177027 1.75800407 14.55015184 -0.70288086 14.53344727 C-1.79397156 14.5425563 -1.79397156 14.5425563 -2.90710449 14.55184937 C-5.98203387 14.51318953 -8.16028994 14.29225063 -10.8972168 12.8397522 C-12.43725586 11.14526367 -12.43725586 11.14526367 -12.81225586 7.64526367 C-12.43725586 4.14526367 -12.43725586 4.14526367 -10.43725586 1.14526367 C-6.89385681 -0.03586934 -3.68697239 -0.0023458 0 0 Z " fill="#FFFFFF" transform="translate(164.437255859375,107.854736328125)"/>
<path d="M0 0 C1.84433923 1.24764124 3.29391547 2.46098506 4.7265625 4.16796875 C4.9140625 6.85546875 4.9140625 6.85546875 4.7265625 9.16796875 C2.4140625 10.29296875 2.4140625 10.29296875 -0.2734375 11.16796875 C-1.2634375 10.50796875 -2.2534375 9.84796875 -3.2734375 9.16796875 C-3.2734375 8.50796875 -3.2734375 7.84796875 -3.2734375 7.16796875 C-6.26824667 6.29562755 -8.90919661 6.05967109 -12.0234375 6.10546875 C-13.22226563 6.11900391 -13.22226563 6.11900391 -14.4453125 6.1328125 C-15.04859375 6.14441406 -15.651875 6.15601563 -16.2734375 6.16796875 C-17.84617318 9.01045415 -17.84617318 9.01045415 -18.2734375 12.16796875 C-17.0359375 12.53921875 -15.7984375 12.91046875 -14.5234375 13.29296875 C2.01692407 18.83267715 2.01692407 18.83267715 5.7265625 25.16796875 C6.93502408 29.01515974 7.13388411 32.1722937 5.6015625 35.91796875 C1.42536127 40.92941022 -2.74550597 43.40754662 -9.2734375 44.16796875 C-15.38592448 44.26121008 -19.4414202 43.10100608 -24.2734375 39.16796875 C-25.0571875 38.54921875 -25.8409375 37.93046875 -26.6484375 37.29296875 C-28.79342222 34.48798873 -28.58641938 32.61076944 -28.2734375 29.16796875 C-26.6234375 28.50796875 -24.9734375 27.84796875 -23.2734375 27.16796875 C-22.5309375 27.93109375 -21.7884375 28.69421875 -21.0234375 29.48046875 C-20.1159375 30.36734375 -19.2084375 31.25421875 -18.2734375 32.16796875 C-17.6959375 32.78671875 -17.1184375 33.40546875 -16.5234375 34.04296875 C-12.86697671 35.87119915 -9.1830775 34.98310605 -5.2734375 34.16796875 C-4.2834375 33.67296875 -4.2834375 33.67296875 -3.2734375 33.16796875 C-3.2734375 31.18796875 -3.2734375 29.20796875 -3.2734375 27.16796875 C-5.9011222 26.11207343 -8.53166756 25.06891684 -11.17578125 24.0546875 C-24.45306861 18.80870652 -24.45306861 18.80870652 -27.2734375 13.16796875 C-27.84182116 6.23368811 -27.84182116 6.23368811 -25.7734375 2.35546875 C-18.21802754 -4.25551496 -8.64564512 -4.64303164 0 0 Z " fill="#FFFFFF" transform="translate(179.2734375,206.83203125)"/>
<path d="M0 0 C2.5 0.125 2.5 0.125 3.5 1.125 C3.57626312 3.82890881 3.59072726 6.50752671 3.5625 9.2109375 C3.55871338 10.02366119 3.55492676 10.83638489 3.55102539 11.67373657 C3.53461751 15.16438831 3.50655097 18.65492498 3.47949219 22.14550781 C3.46143233 24.68814556 3.44931893 27.23076432 3.4375 29.7734375 C3.42920166 30.56414642 3.42090332 31.35485535 3.41235352 32.16952515 C3.39777088 35.42451976 3.46286711 38.01360132 4.5 41.125 C7.00447516 42.34369929 7.00447516 42.34369929 9.5 43.125 C9.17 44.775 8.84 46.425 8.5 48.125 C2.07663126 49.38448407 2.07663126 49.38448407 -1 48 C-3.66307745 46.7504477 -3.66307745 46.7504477 -6.8125 48.5625 C-7.40546875 48.85125 -7.9984375 49.14 -8.609375 49.4375 C-12.01421164 50.67562242 -15.08928116 50.14890748 -18.5 49.125 C-22.51625804 46.96812068 -24.83760909 45.36409683 -26.5 41.125 C-27.4452947 34.04628153 -26.71920484 27.98580672 -22.5 22.125 C-19.14042235 18.96903311 -16.00020215 17.98294317 -11.4375 18 C-7.5 18.125 -7.5 18.125 -5.5 19.125 C-5.52320313 18.24457031 -5.54640625 17.36414063 -5.5703125 16.45703125 C-5.59738281 14.71486328 -5.59738281 14.71486328 -5.625 12.9375 C-5.64820313 11.78894531 -5.67140625 10.64039063 -5.6953125 9.45703125 C-5.43776655 5.06329736 -5.02613566 0.25130678 0 0 Z M-16.25 27.0625 C-18.90552373 30.67696286 -19.18832571 32.65048375 -18.91796875 37.02734375 C-18.58708676 39.32652117 -18.58708676 39.32652117 -16.875 41.75 C-14.51565738 43.38073726 -14.51565738 43.38073726 -11.4375 43.125 C-8.02817085 41.96437731 -7.31146984 41.1634247 -5.5 38.125 C-4.99248425 35.6455868 -4.99248425 35.6455868 -5.0625 33.0625 C-5.04316406 32.20527344 -5.02382812 31.34804687 -5.00390625 30.46484375 C-5.30824009 27.99589613 -5.30824009 27.99589613 -7.27734375 26.31640625 C-10.9482142 24.34871647 -12.91323723 24.71159896 -16.25 27.0625 Z " fill="#FFFFFF" transform="translate(137.5,200.875)"/>
<path d="M0 0 C1.00353516 0.00064453 2.00707031 0.00128906 3.04101562 0.00195312 C4.07806641 0.01806641 5.11511719 0.03417969 6.18359375 0.05078125 C7.22451172 0.04755859 8.26542969 0.04433594 9.33789062 0.04101562 C17.76518458 0.10062992 17.76518458 0.10062992 21.62109375 2.36328125 C21.66381475 4.0294003 21.66173207 5.6971101 21.62109375 7.36328125 C20.62109375 8.36328125 20.62109375 8.36328125 18.39624023 8.47680664 C17.43790283 8.47156982 16.47956543 8.46633301 15.4921875 8.4609375 C13.94047852 8.45610352 13.94047852 8.45610352 12.35742188 8.45117188 C11.26880859 8.44279297 10.18019531 8.43441406 9.05859375 8.42578125 C7.41987305 8.41901367 7.41987305 8.41901367 5.74804688 8.41210938 C3.03903943 8.40027965 0.33005995 8.38234356 -2.37890625 8.36328125 C-2.37890625 12.32328125 -2.37890625 16.28328125 -2.37890625 20.36328125 C-0.98671875 20.11578125 -0.98671875 20.11578125 0.43359375 19.86328125 C5.45535278 19.14146784 10.55980918 19.06555863 15.62109375 19.36328125 C16.62109375 20.36328125 16.62109375 20.36328125 16.74609375 22.86328125 C16.62109375 25.36328125 16.62109375 25.36328125 15.62109375 26.36328125 C9.93887865 27.45136499 4.39294524 27.4678017 -1.37890625 27.36328125 C-1.36730469 28.56726563 -1.35570312 29.77125 -1.34375 31.01171875 C-1.33437191 32.58723804 -1.32527173 34.162759 -1.31640625 35.73828125 C-1.30802734 36.53234375 -1.29964844 37.32640625 -1.29101562 38.14453125 C-1.265625 44.13671875 -1.265625 44.13671875 -2.37890625 46.36328125 C-4.68890625 46.36328125 -6.99890625 46.36328125 -9.37890625 46.36328125 C-11.10180708 39.3828327 -10.68024189 32.05982217 -10.72900391 24.91552734 C-10.74564 23.12698423 -10.77302946 21.33850962 -10.81103516 19.55029297 C-10.86563478 16.96416984 -10.88764006 14.37958938 -10.90234375 11.79296875 C-10.92501312 10.99293427 -10.9476825 10.19289978 -10.97103882 9.36862183 C-10.96240234 7.11279297 -10.96240234 7.11279297 -10.37890625 3.36328125 C-7.13543084 0.40388482 -4.29616262 -0.01404347 0 0 Z " fill="#FFFFFF" transform="translate(15.37890625,203.63671875)"/>
<path d="M0 0 C3.89577229 5.07630935 4.27998608 8.66039899 3.6875 15 C3.57664063 16.25425781 3.46578125 17.50851563 3.3515625 18.80078125 C3.20847656 20.22970703 3.20847656 20.22970703 3.0625 21.6875 C4.7125 21.6875 6.3625 21.6875 8.0625 21.6875 C8.5575 23.6675 8.5575 23.6675 9.0625 25.6875 C7.5 27.25 7.5 27.25 5.0625 28.6875 C1.47530475 28.435767 -1.53072191 27.8230927 -4.9375 26.6875 C-6.29875 27.1515625 -6.29875 27.1515625 -7.6875 27.625 C-12.36789957 29.15513063 -16.11376233 29.47502308 -20.6875 27.5 C-23.31483738 25.38353378 -24.63176348 23.80675946 -25.9375 20.6875 C-25.9375 16.53227254 -25.24125892 15.03799106 -22.5 11.875 C-18.88380481 8.78800411 -17.17441265 8.55008456 -12.5 8.5625 C-11.53191406 8.55992187 -10.56382812 8.55734375 -9.56640625 8.5546875 C-6.9375 8.6875 -6.9375 8.6875 -3.9375 9.6875 C-4.85533124 7.0424963 -4.85533124 7.0424963 -6.9375 4.6875 C-11.603872 4.23591561 -15.36843135 4.74680939 -19.9375 5.6875 C-20.5975 5.3575 -21.2575 5.0275 -21.9375 4.6875 C-22.25 2.375 -22.25 2.375 -21.9375 -0.3125 C-15.15830473 -5.73585621 -6.69064331 -5.26710218 0 0 Z M-17.9375 16.6875 C-17.61708603 19.29030568 -17.61708603 19.29030568 -16.9375 21.6875 C-12.38944365 21.86585515 -9.0580746 21.68535435 -4.9375 19.6875 C-4.9375 18.3675 -4.9375 17.0475 -4.9375 15.6875 C-9.29521388 14.23492871 -14.46762561 13.21762561 -17.9375 16.6875 Z " fill="#FFFFFF" transform="translate(248.9375,222.3125)"/>
<path d="M0 0 C3.41827287 3.41827287 4.96179622 6.14711646 5.0625 11.03125 C5.02083333 13.34375 4.97916667 15.65625 4.9375 17.96875 C4.85106977 21.04754971 4.85106977 21.04754971 6 24 C6.99 24.66 7.98 25.32 9 26 C8.125 29.875 8.125 29.875 7 31 C3.67205128 31.36977208 1.70613806 31.45238972 -1.15234375 29.62109375 C-3.99685876 25.58585153 -3.67564129 21.57655621 -3.75 16.75 C-3.77964844 15.81414062 -3.80929687 14.87828125 -3.83984375 13.9140625 C-3.91039804 11.60928908 -3.96316252 9.30551832 -4 7 C-7.37766979 7.82565261 -9.47921699 8.38954574 -11.76953125 11.07421875 C-13.38998692 14.92730224 -14.05608597 18.69623261 -14.6875 22.8125 C-14.81705078 23.60076172 -14.94660156 24.38902344 -15.08007812 25.20117188 C-15.39612969 27.13259813 -15.69936289 29.06611445 -16 31 C-20.75 32.125 -20.75 32.125 -23 31 C-24.45133444 26.37216 -24.11172865 21.48540005 -24.0625 16.6875 C-24.05798828 15.85154297 -24.05347656 15.01558594 -24.04882812 14.15429688 C-24.03710548 12.10283351 -24.01917203 10.05140727 -24 8 C-25.98 7.34 -27.96 6.68 -30 6 C-29.125 1.125 -29.125 1.125 -28 0 C-22.80145059 -0.51133273 -22.80145059 -0.51133273 -20 0 C-17.5 2.5 -17.5 2.5 -16 5 C-15.2575 4.195625 -14.515 3.39125 -13.75 2.5625 C-9.22188709 -1.65687794 -5.99662794 -1.49915699 0 0 Z " fill="#FFFFFF" transform="translate(289,219)"/>
<path d="M0 0 C4.14239011 3.22185897 6.35911412 5.88847793 7.125 11.125 C7.49726893 16.59099743 6.44253532 20.8066091 3.5625 25.5 C0.1509672 28.81932921 -3.15146726 30.63682349 -7.9921875 30.84765625 C-13.18408208 30.48929316 -16.76329904 29.2620937 -20.75 25.75 C-23.45524002 21.55221377 -24.57804523 17.73668826 -24.75 12.75 C-23.59356651 7.74197397 -21.51376231 3.3046644 -17.75 -0.25 C-11.57931197 -2.8606757 -6.12024788 -2.78193086 0 0 Z M-13.6875 6.5625 C-16.53144402 10.95768622 -16.81505162 14.64805917 -15.75 19.75 C-13.81774841 22.61354094 -13.81774841 22.61354094 -10.75 23.75 C-7.58487639 23.68669753 -5.62602739 23.29374114 -2.9375 21.625 C-0.77397438 18.20890691 -0.38139855 14.73417375 -1.1171875 10.7734375 C-1.76575902 8.5692806 -1.76575902 8.5692806 -3.75 5.75 C-8.04302078 4.1599923 -9.77555924 4.14874932 -13.6875 6.5625 Z " fill="#FFFFFF" transform="translate(61.75,220.25)"/>
<path d="M0 0 C3.51229013 3.01053439 5.39332856 5.54199093 6.0234375 10.1875 C6.01570313 11.198125 6.00796875 12.20875 6 13.25 C6.00773437 14.260625 6.01546875 15.27125 6.0234375 16.3125 C5.32205777 21.48345643 2.50844991 25.04415416 -1.578125 28.23046875 C-5.04040926 30.19493873 -8.44331112 30.60199242 -12.375 30.25 C-16.74458608 28.81622957 -20.34354451 26.73704995 -23.375 23.25 C-25.579295 17.7392625 -25.81749419 12.94733319 -24.375 7.25 C-22.00787659 2.84225296 -19.43943719 -0.7802414 -14.5234375 -2.3359375 C-9.34356926 -3.33423938 -4.63136659 -2.40144935 0 0 Z M-16.375 8.25 C-17.64678188 13.1554444 -17.61299322 16.66744245 -15.375 21.25 C-12.87614711 23.30262916 -11.55759856 23.257453 -8.3125 23.125 C-5.39035891 22.45487388 -5.39035891 22.45487388 -3.5 20.75 C-1.77361187 16.91358194 -1.58946659 13.37588574 -2.375 9.25 C-4.6816523 6.02068679 -6.04075724 4.54288256 -9.9375 3.6875 C-13.26422355 4.45520543 -14.38444778 5.47744513 -16.375 8.25 Z " fill="#FFFFFF" transform="translate(99.375,220.75)"/>
<path d="M0 0 C3.43615111 2.12017834 5.80717883 4.09622164 7 8 C7.46612801 12.81665605 7.52190197 15.01211413 5.25 19.3125 C0.67856439 24.77282587 0.67856439 24.77282587 -3.078125 25.28125 C-7.84539882 25.4706781 -11.25289621 25.21180325 -15 22 C-17.69823335 18.79129008 -18.8944516 16.72564523 -19.5 12.5625 C-18.89656235 8.26300676 -17.76692395 5.34444391 -15 2 C-10.15983642 -1.6019822 -5.6374903 -1.53938849 0 0 Z " fill="#FFFFFF" transform="translate(202,128)"/>
<path d="M0 0 C3.20679165 1.61013278 5.0072538 3.08738402 7.171875 5.99609375 C8.49620214 10.38292742 8.37631326 13.89774552 7.171875 18.30859375 C4.95568306 21.90035309 3.01150253 23.68413595 -0.828125 25.30859375 C-4.83515089 26.07889078 -8.37624116 26.18672758 -11.93359375 24.03515625 C-17.5909503 19.25264865 -17.5909503 19.25264865 -18.06640625 15.35546875 C-18.24521299 9.82187075 -17.69600179 6.58361546 -13.828125 2.30859375 C-9.28568535 -0.65386689 -5.24235011 -1.9826837 0 0 Z " fill="#FFFFFF" transform="translate(104.828125,127.69140625)"/>
<path d="M0 0 C3.37604652 2.04191311 6.22195185 4.44390371 8 8 C8.56645111 12.64304187 8.42123314 16.12513117 6.375 20.375 C2.9959482 24.10974147 0.03890753 25.69633292 -4.9375 26.4375 C-8.97759672 25.86034333 -11.82860731 24.56427469 -15 22 C-17.65103517 18.43767148 -18.21793805 15.76631299 -17.9375 11.4375 C-17.30128656 7.32977411 -16.07943022 4.90346277 -13 2 C-8.76059701 -0.49220134 -4.81393457 -0.95469627 0 0 Z " fill="#FFFFFF" transform="translate(205,27)"/>
<path d="M0 0 C4.91834882 2.36809387 7.15427681 4.87299114 9 10 C9.68286207 14.58493103 8.6857327 17.62777718 6.25390625 21.44921875 C4.10698243 24.10444852 2.25548156 25.01721311 -1 26 C-5.6067365 26.18719954 -8.9930665 25.62129939 -12.9375 23.1875 C-16.69569857 19.20153182 -17.54984344 15.70302822 -17.4609375 10.32421875 C-16.65549538 6.26287923 -14.05462619 3.65894922 -11 1 C-7.52326295 -0.73836852 -3.80129202 -0.45436319 0 0 Z " fill="#FFFFFF" transform="translate(104,27)"/>
<path d="M0 0 C3.40569591 2.14706916 5.80960782 4.10417103 7 8 C7.42537199 13.35968704 7.48854141 16.66939687 4 21 C1.72260535 23.55344249 0.05671938 24.80915436 -3.3359375 25.421875 C-7.71510281 25.65858664 -10.98545942 25.53918085 -14.5 22.75 C-17.78114272 19.14074301 -18.82672149 17.53062682 -19.375 12.6875 C-18.92574559 8.26983163 -17.92912619 5.35251021 -15 2 C-9.60847114 -1.31786391 -5.95224857 -1.44006014 0 0 Z " fill="#FFFFFF" transform="translate(181,153)"/>
<path d="M0 0 C3.90699571 3.1473021 5.07432791 6.40712326 5.6875 11.3125 C5.07435784 16.21763728 3.07904562 19.18538723 -0.58984375 22.44921875 C-4.43192932 24.87397076 -8.38130044 24.65675789 -12.75 23.8125 C-16.72727594 21.53772707 -19.29387347 19.18087958 -20.75 14.8125 C-21.2260149 9.86194509 -20.72693239 6.46921825 -18.078125 2.328125 C-13.06066844 -3.39767836 -6.38845219 -2.75864981 0 0 Z " fill="#FFFFFF" transform="translate(224.75,154.1875)"/>
<path d="M0 0 C3.125 1.5625 3.125 1.5625 4.125 2.5625 C4.3125 5 4.3125 5 4.125 7.5625 C3.465 8.2225 2.805 8.8825 2.125 9.5625 C-0.5 9.1875 -0.5 9.1875 -2.875 8.5625 C-2.875 7.9025 -2.875 7.2425 -2.875 6.5625 C-5.99961161 6.3494583 -8.28945453 6.30929115 -11.1875 7.5625 C-13.75229831 10.60226096 -13.92225694 13.66380242 -13.875 17.5625 C-13.57344 20.00093773 -13.57344 20.00093773 -11.875 21.5625 C-8.23358634 23.0740302 -6.03486318 23.97673685 -2.25 22.625 C-1.074375 22.0990625 -1.074375 22.0990625 0.125 21.5625 C2.9375 21.9375 2.9375 21.9375 5.125 22.5625 C5.375 24.875 5.375 24.875 5.125 27.5625 C1.68994281 30.99755719 -1.49135346 31.45807385 -6.1875 31.8125 C-11.81136236 31.4312212 -15.50764882 29.75150103 -19.75 26.0625 C-23.21843363 21.98198984 -23.2162483 18.277667 -23.15625 13.1328125 C-22.58826915 7.94209865 -20.12778632 4.72361903 -16.3125 1.1875 C-11.11967611 -2.27438259 -5.68776692 -2.39916094 0 0 Z " fill="#FFFFFF" transform="translate(213.875,219.4375)"/>
</svg>
