<?xml version="1.0" encoding="UTF-8"?>
<svg version="1.1" xmlns="http://www.w3.org/2000/svg" width="164" height="50">
<path d="M0 0 C0.99 0 1.98 0 3 0 C3 3.96 3 7.92 3 12 C3.66 12 4.32 12 5 12 C5 11.34 5 10.68 5 10 C7.66666667 10.66666667 10.33333333 11.33333333 13 12 C13 11.34 13 10.68 13 10 C12.030625 9.690625 11.06125 9.38125 10.0625 9.0625 C7 8 7 8 6 7 C5.875 4.5 5.875 4.5 6 2 C7 1 7 1 10.5625 0.9375 C11.696875 0.958125 12.83125 0.97875 14 1 C14.33 2.32 14.66 3.64 15 5 C12.03 4.505 12.03 4.505 9 4 C9 4.66 9 5.32 9 6 C9.78375 6.12375 10.5675 6.2475 11.375 6.375 C14 7 14 7 16 9 C15.625 11.625 15.625 11.625 15 14 C8.375 15.125 8.375 15.125 5 14 C4.236875 14.165 3.47375 14.33 2.6875 14.5 C-0.46240537 15.08602891 -2.88520622 14.65193358 -6 14 C-6.125 10.625 -6.125 10.625 -6 7 C-5.34 6.34 -4.68 5.68 -4 5 C-2.68 5 -1.36 5 0 5 C0 3.35 0 1.7 0 0 Z M-3 8 C-3 9.32 -3 10.64 -3 12 C-2.01 11.67 -1.02 11.34 0 11 C0 10.01 0 9.02 0 8 C-0.99 8 -1.98 8 -3 8 Z " fill="#4970A8" transform="translate(91,17)"/>
<path d="M0 0 C6.93 0.33 13.86 0.66 21 1 C21 1.66 21 2.32 21 3 C20.01 3 19.02 3 18 3 C18 3.99 18 4.98 18 6 C18.66 6 19.32 6 20 6 C20 6.99 20 7.98 20 9 C19.4225 8.814375 18.845 8.62875 18.25 8.4375 C15.79307475 7.95976454 14.35602466 8.24270636 12 9 C12 8.01 12 7.02 12 6 C12.66 6 13.32 6 14 6 C14 5.01 14 4.02 14 3 C12.68 3 11.36 3 10 3 C10.061875 4.175625 10.061875 4.175625 10.125 5.375 C10 8 10 8 8 10 C2.66666667 10.33333333 2.66666667 10.33333333 0 9 C0 6.03 0 3.06 0 0 Z M2 2 C2 3.65 2 5.3 2 7 C2.66 6.67 3.32 6.34 4 6 C3.67 5.01 3.34 4.02 3 3 C4.98 3.495 4.98 3.495 7 4 C7 3.34 7 2.68 7 2 C5.35 2 3.7 2 2 2 Z M6 5 C5.67 5.66 5.34 6.32 5 7 C5.66 7 6.32 7 7 7 C6.67 6.34 6.34 5.68 6 5 Z " fill="#4970A7" transform="translate(0,26)"/>
<path d="M0 0 C1.2065625 0.0309375 1.2065625 0.0309375 2.4375 0.0625 C2.7675 1.3825 3.0975 2.7025 3.4375 4.0625 C1.7875 3.7325 0.1375 3.4025 -1.5625 3.0625 C-1.2325 4.0525 -0.9025 5.0425 -0.5625 6.0625 C1.0875 6.0625 2.7375 6.0625 4.4375 6.0625 C4.7675 4.4125 5.0975 2.7625 5.4375 1.0625 C10.85135948 -0.26088787 10.85135948 -0.26088787 13.25 1.0625 C14.96364462 3.9486383 15.12586231 6.75914046 15.4375 10.0625 C2.4375 10.0625 2.4375 10.0625 -3.5625 9.0625 C-3.8925 8.7325 -4.2225 8.4025 -4.5625 8.0625 C-3.70835153 0.0904476 -3.70835153 0.0904476 0 0 Z " fill="#4970A8" transform="translate(112.5625,21.9375)"/>
<path d="M0 0 C1.32 0 2.64 0 4 0 C4.66 1.32 5.32 2.64 6 4 C9.27773504 3.24849977 9.27773504 3.24849977 11 0 C11.99 0 12.98 0 14 0 C14 4.62 14 9.24 14 14 C13.01 14 12.02 14 11 14 C10.67 11.69 10.34 9.38 10 7 C9.34 7.66 8.68 8.32 8 9 C5.875 8.625 5.875 8.625 4 8 C3.67 9.98 3.34 11.96 3 14 C2.01 13.67 1.02 13.34 0 13 C0 8.71 0 4.42 0 0 Z " fill="#4970A8" transform="translate(31,18)"/>
<path d="M0 0 C3.3 0 6.6 0 10 0 C10 0.99 10 1.98 10 3 C7.69 3 5.38 3 3 3 C3.33 3.66 3.66 4.32 4 5 C6.52733235 5.65555119 6.52733235 5.65555119 9 6 C8.67 6.66 8.34 7.32 8 8 C6.35 8 4.7 8 3 8 C3 9.98 3 11.96 3 14 C2.01 14 1.02 14 0 14 C0 9.38 0 4.76 0 0 Z " fill="#4970A7" transform="translate(53,18)"/>
<path d="M0 0 C6.15234375 -0.09765625 6.15234375 -0.09765625 8 0 C9 1 9 1 9.1328125 2.8125 C9.13023438 3.534375 9.12765625 4.25625 9.125 5 C9.12757812 5.721875 9.13015625 6.44375 9.1328125 7.1875 C9 9 9 9 8 10 C4.5625 10.1875 4.5625 10.1875 1 10 C-1 8 -1 8 -1.1875 5 C-1 2 -1 2 0 0 Z M2 2 C2.33 2.66 2.66 3.32 3 4 C3.99 3.67 4.98 3.34 6 3 C6 4.32 6 5.64 6 7 C4.68 6.67 3.36 6.34 2 6 C2 6.66 2 7.32 2 8 C3.65 8 5.3 8 7 8 C7 6.02 7 4.04 7 2 C5.35 2 3.7 2 2 2 Z " fill="#4970A8" transform="translate(12,14)"/>
<path d="M0 0 C2.05078125 0.03255208 4.1015625 0.06510417 6.15234375 0.09765625 C7.53359393 2.86015661 7.34313681 5.04496724 7.15234375 8.09765625 C5.15234375 10.09765625 5.15234375 10.09765625 1.58984375 10.28515625 C-1.84765625 10.09765625 -1.84765625 10.09765625 -2.84765625 9.09765625 C-2.98046875 7.28515625 -2.98046875 7.28515625 -2.97265625 5.09765625 C-2.97523437 4.37578125 -2.9778125 3.65390625 -2.98046875 2.91015625 C-2.79798679 0.41981421 -2.49538581 0.13189143 0 0 Z M-0.84765625 2.09765625 C-0.84765625 4.07765625 -0.84765625 6.05765625 -0.84765625 8.09765625 C0.80234375 8.09765625 2.45234375 8.09765625 4.15234375 8.09765625 C3.82234375 7.10765625 3.49234375 6.11765625 3.15234375 5.09765625 C3.15234375 5.75765625 3.15234375 6.41765625 3.15234375 7.09765625 C1.15234375 6.09765625 1.15234375 6.09765625 0.15234375 3.09765625 C2.13234375 3.59265625 2.13234375 3.59265625 4.15234375 4.09765625 C4.15234375 3.43765625 4.15234375 2.77765625 4.15234375 2.09765625 C2.50234375 2.09765625 0.85234375 2.09765625 -0.84765625 2.09765625 Z " fill="#4970A7" transform="translate(2.84765625,13.90234375)"/>
<path d="M0 0 C1.45792884 -0.05399736 2.91642712 -0.09279177 4.375 -0.125 C5.18710938 -0.14820312 5.99921875 -0.17140625 6.8359375 -0.1953125 C9 0 9 0 11 2 C11.40047444 4.32275177 11.7397104 6.65739357 12 9 C10.68 9 9.36 9 8 9 C8 7.02 8 5.04 8 3 C7.01 3.495 7.01 3.495 6 4 C5.34227572 7.02934491 5.34227572 7.02934491 5 10 C4.01 10 3.02 10 2 10 C2 7.69 2 5.38 2 3 C1.34 3 0.68 3 0 3 C0 2.01 0 1.02 0 0 Z " fill="#4970A7" transform="translate(128,22)"/>
<path d="M0 0 C0.66 0.66 1.32 1.32 2 2 C1.625 5.625 1.625 5.625 1 9 C-4.41139241 10.32278481 -4.41139241 10.32278481 -6.9375 8.9375 C-8.52666796 6.03960549 -7.87523205 4.09697496 -7 1 C-4.48718205 -0.25640898 -2.78302919 -0.20872719 0 0 Z M-4 3 C-4 4.32 -4 5.64 -4 7 C-3.01 7 -2.02 7 -1 7 C-1 5.68 -1 4.36 -1 3 C-1.99 3 -2.98 3 -4 3 Z " fill="#4970A8" transform="translate(71,22)"/>
<path d="M0 0 C2.33944736 0.28730055 4.6739143 0.61936779 7 1 C7.92054342 4.01268757 8.27861489 5.42729162 6.875 8.3125 C5 10 5 10 2.4375 10.375 C0 10 0 10 -2 8 C-1.42307692 1.42307692 -1.42307692 1.42307692 0 0 Z M1 3 C1 4.32 1 5.64 1 7 C2.32 6.67 3.64 6.34 5 6 C4.67 5.01 4.34 4.02 4 3 C3.01 3 2.02 3 1 3 Z " fill="#4970A8" transform="translate(76,22)"/>
<path d="M0 0 C0.99 0 1.98 0 3 0 C3 3.3 3 6.6 3 10 C2.01 10 1.02 10 0 10 C0 6.7 0 3.4 0 0 Z " fill="#4970A7" transform="translate(48,22)"/>
<path d="M0 0 C0.99 0 1.98 0 3 0 C3 0.99 3 1.98 3 3 C1.68 2.67 0.36 2.34 -1 2 C-0.67 1.34 -0.34 0.68 0 0 Z " fill="#4970A8" transform="translate(48,18)"/>
</svg>
